<?xml version="1.0" encoding="iso-8859-1"?>
<!-- Generator: Adobe Illustrator 19.0.0, SVG Export Plug-In . SVG Version: 6.00 Build 0)  -->
<svg version="1.1" id="Capa_1" xmlns="http://www.w3.org/2000/svg" xmlns:xlink="http://www.w3.org/1999/xlink" x="0px" y="0px"
	 viewBox="0 0 512.001 512.001" style="enable-background:new 0 0 512.001 512.001; fill: #ff8b00;" xml:space="preserve">
<g>
	<g>
		<path d="M188.772,426.129c-4.141,0-7.498,3.356-7.498,7.498c0,21.717-17.667,39.384-39.384,39.384
			c-21.717,0-39.383-17.667-39.383-39.384c0-4.142-3.357-7.498-7.498-7.498c-4.141,0-7.498,3.356-7.498,7.498
			c0,29.985,24.394,54.38,54.379,54.38s54.38-24.394,54.38-54.38C196.27,429.485,192.913,426.129,188.772,426.129z"/>
	</g>
</g>
<g>
	<g>
		<path d="M141.89,23.993c-29.985,0-54.379,24.394-54.379,54.38c0,4.142,3.357,7.498,7.498,7.498c4.141,0,7.498-3.356,7.498-7.498
			c0-21.717,17.667-39.384,39.383-39.384c21.716,0,39.384,17.667,39.384,39.384c0,4.142,3.357,7.498,7.498,7.498
			c4.141,0,7.498-3.356,7.498-7.498C196.27,48.388,171.875,23.993,141.89,23.993z"/>
	</g>
</g>
<g>
	<g>
		<path d="M234.588,352.305h-14.325v-190.61h14.324c9.589,0,17.391-7.802,17.391-17.391v-30.402c0-9.59-7.802-17.391-17.391-17.391
			h-14.325V78.373C220.262,35.158,185.105,0,141.89,0C98.675,0,63.518,35.158,63.518,78.373v18.139H49.194
			c-9.589,0-17.391,7.802-17.391,17.391v30.401c0,9.589,7.802,17.391,17.391,17.391h14.325v190.609H49.194
			c-9.589,0-17.391,7.802-17.391,17.391v30.401c0,9.59,7.802,17.391,17.391,17.391h14.325v16.14
			c0,43.215,35.157,78.373,78.372,78.373c43.215,0,78.372-35.158,78.372-78.373v-16.14h14.325c9.589,0,17.391-7.802,17.391-17.391
			v-30.401C251.979,360.106,244.177,352.305,234.588,352.305z M78.513,78.373c0.001-34.947,28.432-63.377,63.377-63.377
			c34.945,0,63.376,28.43,63.376,63.377V98.88c-3.937,2.294-6.895,6.083-8.089,10.586h-9.086c-0.221-9.8-8.246-17.708-18.097-17.708
			h-56.211c-9.851,0-17.876,7.908-18.097,17.708h-9.085c-1.194-4.503-4.152-8.292-8.089-10.586V78.373z M196.597,124.462v9.282
			h-8.484v-9.282H196.597z M173.118,109.876v34.411c0,1.721-1.401,3.122-3.122,3.122h-56.211c-1.722,0-3.122-1.401-3.122-3.122
			v-34.411c0-1.721,1.401-3.122,3.122-3.122h56.211C171.718,106.754,173.118,108.155,173.118,109.876z M95.667,124.462v9.282h-8.484
			v-9.282H95.667z M72.187,400.096c0,1.321-1.075,2.395-2.395,2.395H49.194c-1.321,0-2.395-1.075-2.395-2.395v-30.401
			c0-1.321,1.075-2.395,2.395-2.395h20.598c1.321,0,2.395,1.074,2.395,2.395V400.096z M72.187,144.305
			c0,1.321-1.075,2.395-2.395,2.395H49.194c-1.321,0-2.395-1.074-2.395-2.395v-30.401c0-1.321,1.075-2.395,2.395-2.395h20.598
			c1.321,0,2.395,1.075,2.395,2.395V144.305z M78.513,269.538l60.052,24.419c0.906,0.368,1.865,0.553,2.824,0.553
			c0.948,0,1.896-0.18,2.79-0.539l2.709-1.086c2.792-1.12,4.622-3.825,4.622-6.833v-0.293c0-5.211-5.265-8.772-10.101-6.833
			l-62.895-25.577v-21.454l60.052,24.42c0.906,0.368,1.865,0.553,2.824,0.553c0.948,0,1.895-0.18,2.79-0.539l61.086-24.493v21.487
			l-15.658,6.278c-2.899,1.163-4.75,4.023-4.615,7.143c0.004,0.096,0.008,0.192,0.012,0.289c0.213,5.073,5.381,8.411,10.094,6.521
			l10.166-4.076v85.194c-3.936,2.294-6.895,6.083-8.089,10.585h-9.641c-1.992-7.841-9.09-13.665-17.541-13.665h-56.211
			c-8.451,0-15.549,5.824-17.541,13.665h-9.641c-1.194-4.502-4.153-8.291-8.089-10.585V269.538z M196.597,380.255v9.282h-8.484
			v-9.282H196.597z M173.118,369.711v34.411c0,1.721-1.401,3.122-3.122,3.122h-56.211c-1.722,0-3.122-1.401-3.122-3.122v-34.411
			c0-1.722,1.401-3.122,3.122-3.122h56.211C171.718,366.589,173.118,367.989,173.118,369.711z M95.667,380.255v9.282h-8.484v-9.282
			H95.667z M205.267,433.627L205.267,433.627c-0.001,34.946-28.431,63.377-63.377,63.377s-63.376-28.43-63.376-63.377v-18.508
			c3.937-2.294,6.895-6.083,8.089-10.586h9.085c0.221,9.8,8.246,17.708,18.097,17.708h56.211c9.851,0,17.876-7.908,18.097-17.708
			h9.085c1.194,4.503,4.152,8.292,8.089,10.586V433.627z M205.267,215.682L205.267,215.682l-63.857,25.604l-62.896-25.577v-56.382
			c3.936-2.294,6.895-6.083,8.089-10.585h9.641c1.992,7.841,9.09,13.665,17.541,13.665h56.211c8.451,0,15.549-5.824,17.541-13.665
			h9.641c1.194,4.502,4.153,8.291,8.089,10.585V215.682z M211.592,113.902c0-1.321,1.075-2.395,2.395-2.395h20.598
			c1.321,0,2.395,1.075,2.395,2.395v30.402c0,1.321-1.075,2.395-2.395,2.395h-20.598c-1.321,0-2.395-1.074-2.395-2.395V113.902z
			 M236.982,400.096c0,1.321-1.075,2.395-2.395,2.395h-20.598c-1.321,0-2.395-1.075-2.395-2.395v-30.401
			c0-1.321,1.075-2.395,2.395-2.395h20.598c1.321,0,2.395,1.074,2.395,2.395V400.096z"/>
	</g>
</g>
<g>
	<g>
		<circle cx="124.726" cy="127.085" r="6.337"/>
	</g>
</g>
<g>
	<g>
		<circle cx="159.056" cy="127.085" r="6.337"/>
	</g>
</g>
<g>
	<g>
		<circle cx="124.726" cy="386.912" r="6.337"/>
	</g>
</g>
<g>
	<g>
		<circle cx="159.056" cy="386.912" r="6.337"/>
	</g>
</g>
<g>
	<g>
		<path d="M439.738,365.258c-10.459,0-20.004,3.99-27.194,10.527l-24.9-8.411v-220.75l24.9-8.411
			c7.189,6.537,16.734,10.527,27.194,10.527c22.31,0,40.461-18.151,40.461-40.462c0-22.311-18.15-40.461-40.461-40.461
			c-10.459,0-20.004,3.989-27.194,10.526l-24.899-8.41v-9.467C387.643,27.125,359.448,0,324.792,0
			c-11.301,0-20.494,9.042-20.494,20.156s9.193,20.156,20.494,20.156c12.056,0,21.863,9.041,21.863,20.154v391.065
			c0,11.113-9.808,20.154-21.863,20.154c-11.301,0-20.494,9.042-20.494,20.156c0,11.114,9.193,20.156,20.494,20.156
			c34.656,0,62.851-27.125,62.851-60.467v-7.468l24.899-8.41c7.19,6.537,16.735,10.526,27.194,10.526
			c22.31,0,40.461-18.15,40.461-40.461S462.047,365.258,439.738,365.258z M439.738,82.815c14.041,0,25.465,11.424,25.465,25.465
			c0,14.042-11.424,25.466-25.465,25.466c-14.042,0-25.466-11.424-25.466-25.466C414.272,94.239,425.696,82.815,439.738,82.815z
			 M387.643,85.763l15.516,5.241c-2.486,5.242-3.883,11.098-3.883,17.276c0,6.177,1.397,12.034,3.883,17.276l-15.516,5.241V85.763z
			 M372.647,451.532c0,25.073-21.468,45.471-47.856,45.471c-3.031,0-5.498-2.314-5.498-5.161s2.467-5.161,5.498-5.161
			c20.324,0,36.859-15.768,36.859-35.15V60.467c0-19.383-16.534-35.15-36.859-35.15c-3.031,0-5.498-2.314-5.498-5.161
			s2.467-5.161,5.498-5.161c26.389,0,47.856,20.398,47.856,45.471V451.532z M403.159,422.996l-15.516,5.241v-45.033l15.516,5.241
			c-2.486,5.243-3.883,11.099-3.883,17.276S400.673,417.752,403.159,422.996z M439.738,431.185
			c-14.042,0-25.466-11.424-25.466-25.465c0-14.042,11.424-25.466,25.466-25.466c14.041,0,25.465,11.424,25.465,25.466
			C465.203,419.761,453.779,431.185,439.738,431.185z"/>
	</g>
</g>
<g>
	<g>
		<circle cx="439.738" cy="108.28" r="10.983"/>
	</g>
</g>
<g>
	<g>
		<circle cx="439.738" cy="405.717" r="10.983"/>
	</g>
</g>
<g>
</g>
<g>
</g>
<g>
</g>
<g>
</g>
<g>
</g>
<g>
</g>
<g>
</g>
<g>
</g>
<g>
</g>
<g>
</g>
<g>
</g>
<g>
</g>
<g>
</g>
<g>
</g>
<g>
</g>
</svg>
