<svg height="512" viewBox="0 0 64 64" width="512" fill="#ff8b00" xmlns="http://www.w3.org/2000/svg"><path d="m17 19h2v2h-2z"/><path d="m27 19h2v2h-2z"/><path d="m27 25h-2a2 2 0 0 1 -4 0h-2a4 4 0 0 0 8 0z"/><path d="m60.768 43.206a3 3 0 0 0 -4.1 1.1l-1.555 2.694h-11.377a11 11 0 0 0 -7.457-8.145l-8.279-2.59v-3.479a11 11 0 0 0 6-9.786v-1a3 3 0 0 0 3-3 2.966 2.966 0 0 0 -.184-1h4.184a3 3 0 0 0 0-6h-7v-5a5.006 5.006 0 0 0 -5-5h-12a5.006 5.006 0 0 0 -5 5v9a3 3 0 0 0 0 6v1a11 11 0 0 0 6 9.786v3.479l-8.277 2.59a10.94 10.94 0 0 0 -7.723 10.495v11.65a1 1 0 0 0 1 1h40a1 1 0 0 0 1-1v-8h5.78a3 3 0 1 0 4.44 0h1.47a5.016 5.016 0 0 0 4.331-2.5l1.845-3.2a3 3 0 0 0 -1.098-4.094zm-8.768 12.794a1 1 0 1 1 1-1 1 1 0 0 1 -1 1zm-10.328-9h-4.672v-5.7a9 9 0 0 1 4.672 5.7zm-6.672-6.449v6.449h-8.113l-1.557-2.7a3 3 0 0 0 -5.2 3l1.845 3.2a5.016 5.016 0 0 0 4.335 2.5h2.47a3 3 0 1 0 4.44 0h1.78v7h-24v-19.448l7.193-2.252a4.973 4.973 0 0 0 9.614 0zm-3 14.449a1 1 0 1 1 -1-1 1 1 0 0 1 1 1zm-6-43h-6v-2h6zm6 2v2h-18v-2zm3 5a1 1 0 0 1 -1 1v-2a1 1 0 0 1 1 1zm6-5a1 1 0 0 1 0 2h-7v-2zm-24-10h12a3 3 0 0 1 3 3v5h-4v-3a1 1 0 0 0 -1-1h-8a1 1 0 0 0 -1 1v3h-4v-5a3 3 0 0 1 3-3zm-6 15a1 1 0 0 1 1-1v2a1 1 0 0 1 -1-1zm3 4v-5h18v5a9 9 0 0 1 -18 0zm9 11a10.966 10.966 0 0 0 3-.426v3.426a3 3 0 0 1 -6 0v-3.426a10.966 10.966 0 0 0 3 .426zm-19 15.35a8.94 8.94 0 0 1 5-8.058v18.708h-5zm38 10.65h-5v-7h5zm18.134-13.7-1.845 3.2a3.011 3.011 0 0 1 -2.6 1.5h-29.379a3.011 3.011 0 0 1 -2.6-1.5l-1.845-3.2a1 1 0 1 1 1.732-1l1.845 3.2a1 1 0 0 0 .867.5h29.381a1 1 0 0 0 .867-.5l1.843-3.2a1 1 0 0 1 1.732 1z"/></svg>